solid OpenSCAD_Model
  facet normal 0 -1 0
    outer loop
      vertex -244 0 67.6
      vertex -88 0 49.005
      vertex -88 0 67.6
    endloop
  endfacet
  facet normal 0 -1 0
    outer loop
      vertex -244 0 67.6
      vertex -88 0 20.995
      vertex -88 0 49.005
    endloop
  endfacet
  facet normal 0 -1 0
    outer loop
      vertex -244 0 0
      vertex -88 0 20.995
      vertex -244 0 67.6
    endloop
  endfacet
  facet normal 0 -1 -0
    outer loop
      vertex -88 0 20.995
      vertex -244 0 0
      vertex -88 0 0
    endloop
  endfacet
  facet normal 0 -1 0
    outer loop
      vertex -88 0 20.995
      vertex -78 0 54
      vertex -88 0 49.005
    endloop
  endfacet
  facet normal 0 -1 -0
    outer loop
      vertex -78 0 54
      vertex -88 0 20.995
      vertex -78 0 16
    endloop
  endfacet
  facet normal 1 -0 0
    outer loop
      vertex -261.6 140 25
      vertex -261.6 165 5
      vertex -261.6 165 25
    endloop
  endfacet
  facet normal 1 0 0
    outer loop
      vertex -261.6 165 5
      vertex -261.6 140 25
      vertex -261.6 140 5
    endloop
  endfacet
  facet normal -0 0 1
    outer loop
      vertex -264 165 25
      vertex -261.6 140 25
      vertex -261.6 165 25
    endloop
  endfacet
  facet normal 0 0 1
    outer loop
      vertex -261.6 140 25
      vertex -264 165 25
      vertex -264 140 25
    endloop
  endfacet
  facet normal 0 0 -1
    outer loop
      vertex -264 140 5
      vertex -261.6 165 5
      vertex -261.6 140 5
    endloop
  endfacet
  facet normal -0 0 -1
    outer loop
      vertex -261.6 165 5
      vertex -264 140 5
      vertex -264 165 5
    endloop
  endfacet
  facet normal -1 0 0
    outer loop
      vertex -264 20 0
      vertex -264 140 5
      vertex -264 140 0
    endloop
  endfacet
  facet normal -1 -0 0
    outer loop
      vertex -264 140 5
      vertex -264 20 0
      vertex -264 140 25
    endloop
  endfacet
  facet normal -1 0 0
    outer loop
      vertex -264 20 67.6
      vertex -264 140 25
      vertex -264 20 0
    endloop
  endfacet
  facet normal -1 0 0
    outer loop
      vertex -264 140 25
      vertex -264 20 67.6
      vertex -264 140 67.6
    endloop
  endfacet
  facet normal -1 0 0
    outer loop
      vertex -264 140 5
      vertex -264 165 25
      vertex -264 165 5
    endloop
  endfacet
  facet normal -1 -0 0
    outer loop
      vertex -264 165 25
      vertex -264 140 5
      vertex -264 140 25
    endloop
  endfacet
  facet normal 0 1 -0
    outer loop
      vertex -261.6 165 5
      vertex -264 165 25
      vertex -261.6 165 25
    endloop
  endfacet
  facet normal 0 1 0
    outer loop
      vertex -264 165 25
      vertex -261.6 165 5
      vertex -264 165 5
    endloop
  endfacet
  facet normal 0 0 -1
    outer loop
      vertex -244 0 0
      vertex -88 2.39999 0
      vertex -88 0 0
    endloop
  endfacet
  facet normal 0 0 -1
    outer loop
      vertex -244 0 0
      vertex -244 2.39999 0
      vertex -88 2.39999 0
    endloop
  endfacet
  facet normal 0 0 -1
    outer loop
      vertex -244 0 0
      vertex -245.725 2.48474 0
      vertex -244 2.39999 0
    endloop
  endfacet
  facet normal 0 0 -1
    outer loop
      vertex -245.96 0.0962982 0
      vertex -245.725 2.48474 0
      vertex -244 0 0
    endloop
  endfacet
  facet normal 0 0 -1
    outer loop
      vertex -245.96 0.0962982 0
      vertex -247.434 2.73816 0
      vertex -245.725 2.48474 0
    endloop
  endfacet
  facet normal 0 0 -1
    outer loop
      vertex -247.902 0.384293 0
      vertex -247.434 2.73816 0
      vertex -245.96 0.0962982 0
    endloop
  endfacet
  facet normal 0 0 -1
    outer loop
      vertex -247.902 0.384293 0
      vertex -249.109 3.15784 0
      vertex -247.434 2.73816 0
    endloop
  endfacet
  facet normal 0 0 -1
    outer loop
      vertex -249.806 0.861191 0
      vertex -249.109 3.15784 0
      vertex -247.902 0.384293 0
    endloop
  endfacet
  facet normal 0 0 -1
    outer loop
      vertex -249.806 0.861191 0
      vertex -250.735 3.7397 0
      vertex -249.109 3.15784 0
    endloop
  endfacet
  facet normal 0 0 -1
    outer loop
      vertex -251.654 1.5224 0
      vertex -250.735 3.7397 0
      vertex -249.806 0.861191 0
    endloop
  endfacet
  facet normal 0 0 -1
    outer loop
      vertex -251.654 1.5224 0
      vertex -252.297 4.47816 0
      vertex -250.735 3.7397 0
    endloop
  endfacet
  facet normal 0 0 -1
    outer loop
      vertex -253.428 2.36157 0
      vertex -252.297 4.47816 0
      vertex -251.654 1.5224 0
    endloop
  endfacet
  facet normal 0 0 -1
    outer loop
      vertex -253.428 2.36157 0
      vertex -253.778 5.36612 0
      vertex -252.297 4.47816 0
    endloop
  endfacet
  facet normal 0 0 -1
    outer loop
      vertex -255.111 3.37061 0
      vertex -253.778 5.36612 0
      vertex -253.428 2.36157 0
    endloop
  endfacet
  facet normal 0 0 -1
    outer loop
      vertex -255.111 3.37061 0
      vertex -255.165 6.395 0
      vertex -253.778 5.36612 0
    endloop
  endfacet
  facet normal 0 0 -1
    outer loop
      vertex -256.688 4.53978 0
      vertex -255.165 6.395 0
      vertex -255.111 3.37061 0
    endloop
  endfacet
  facet normal -0 0 -1
    outer loop
      vertex -255.165 6.395 0
      vertex -256.688 4.53978 0
      vertex -256.445 7.5549 0
    endloop
  endfacet
  facet normal 0 0 -1
    outer loop
      vertex -258.142 5.85785 0
      vertex -256.445 7.5549 0
      vertex -256.688 4.53978 0
    endloop
  endfacet
  facet normal -0 0 -1
    outer loop
      vertex -256.445 7.5549 0
      vertex -258.142 5.85785 0
      vertex -257.605 8.83467 0
    endloop
  endfacet
  facet normal 0 0 -1
    outer loop
      vertex -259.46 7.31213 0
      vertex -257.605 8.83467 0
      vertex -258.142 5.85785 0
    endloop
  endfacet
  facet normal -0 0 -1
    outer loop
      vertex -257.605 8.83467 0
      vertex -259.46 7.31213 0
      vertex -258.634 10.222 0
    endloop
  endfacet
  facet normal 0 0 -1
    outer loop
      vertex -260.629 8.88858 0
      vertex -258.634 10.222 0
      vertex -259.46 7.31213 0
    endloop
  endfacet
  facet normal -0 0 -1
    outer loop
      vertex -258.634 10.222 0
      vertex -260.629 8.88858 0
      vertex -259.522 11.7034 0
    endloop
  endfacet
  facet normal 0 0 -1
    outer loop
      vertex -261.638 10.5721 0
      vertex -259.522 11.7034 0
      vertex -260.629 8.88858 0
    endloop
  endfacet
  facet normal -0 0 -1
    outer loop
      vertex -259.522 11.7034 0
      vertex -261.638 10.5721 0
      vertex -260.26 13.2648 0
    endloop
  endfacet
  facet normal 0 0 -1
    outer loop
      vertex -262.478 12.3463 0
      vertex -260.26 13.2648 0
      vertex -261.638 10.5721 0
    endloop
  endfacet
  facet normal -0 0 -1
    outer loop
      vertex -260.26 13.2648 0
      vertex -262.478 12.3463 0
      vertex -260.842 14.891 0
    endloop
  endfacet
  facet normal 0 0 -1
    outer loop
      vertex -263.139 14.1943 0
      vertex -260.842 14.891 0
      vertex -262.478 12.3463 0
    endloop
  endfacet
  facet normal -0 0 -1
    outer loop
      vertex -260.842 14.891 0
      vertex -263.139 14.1943 0
      vertex -261.262 16.5664 0
    endloop
  endfacet
  facet normal 0 0 -1
    outer loop
      vertex -263.616 16.0982 0
      vertex -261.262 16.5664 0
      vertex -263.139 14.1943 0
    endloop
  endfacet
  facet normal -0 0 -1
    outer loop
      vertex -261.262 16.5664 0
      vertex -263.616 16.0982 0
      vertex -261.515 18.2749 0
    endloop
  endfacet
  facet normal 0 0 -1
    outer loop
      vertex -263.904 18.0396 0
      vertex -261.515 18.2749 0
      vertex -263.616 16.0982 0
    endloop
  endfacet
  facet normal -0 0 -1
    outer loop
      vertex -261.515 18.2749 0
      vertex -263.904 18.0396 0
      vertex -261.6 20 0
    endloop
  endfacet
  facet normal -0 0 -1
    outer loop
      vertex -261.6 20 0
      vertex -263.904 18.0396 0
      vertex -264 20 0
    endloop
  endfacet
  facet normal 0 0 -1
    outer loop
      vertex -261.6 20 0
      vertex -264 20 0
      vertex -261.6 140 0
    endloop
  endfacet
  facet normal -0 0 -1
    outer loop
      vertex -261.6 140 0
      vertex -264 20 0
      vertex -264 140 0
    endloop
  endfacet
  facet normal 0 0 1
    outer loop
      vertex -88 140 70
      vertex -261.6 139.99 70
      vertex -88 139.99 70
    endloop
  endfacet
  facet normal 0 0 1
    outer loop
      vertex -274 20 70
      vertex -261.6 20 70
      vertex -261.6 139.99 70
    endloop
  endfacet
  facet normal 0 -0 1
    outer loop
      vertex -273.988 19.5093 70
      vertex -261.6 20 70
      vertex -274 20 70
    endloop
  endfacet
  facet normal 0 -0 1
    outer loop
      vertex -273.892 17.5489 70
      vertex -261.6 20 70
      vertex -273.988 19.5093 70
    endloop
  endfacet
  facet normal 0 0 1
    outer loop
      vertex -261.6 20 70
      vertex -263.403 -2.86978 70
      vertex -262.645 -3.49229 70
    endloop
  endfacet
  facet normal 0 0 1
    outer loop
      vertex -261.6 20 70
      vertex -264.858 -1.55171 70
      vertex -263.403 -2.86978 70
    endloop
  endfacet
  facet normal 0 0 1
    outer loop
      vertex -261.6 20 70
      vertex -265.552 -0.857697 70
      vertex -264.858 -1.55171 70
    endloop
  endfacet
  facet normal 0 0 1
    outer loop
      vertex -261.6 20 70
      vertex -266.87 0.596588 70
      vertex -265.552 -0.857697 70
    endloop
  endfacet
  facet normal 0 0 1
    outer loop
      vertex -261.6 20 70
      vertex -267.492 1.35513 70
      vertex -266.87 0.596588 70
    endloop
  endfacet
  facet normal 0 0 1
    outer loop
      vertex -261.6 20 70
      vertex -268.661 2.93158 70
      vertex -267.492 1.35513 70
    endloop
  endfacet
  facet normal 0 0 1
    outer loop
      vertex -261.6 20 70
      vertex -269.207 3.74756 70
      vertex -268.661 2.93158 70
    endloop
  endfacet
  facet normal 0 0 1
    outer loop
      vertex -261.6 20 70
      vertex -270.216 5.43103 70
      vertex -269.207 3.74756 70
    endloop
  endfacet
  facet normal 0 0 1
    outer loop
      vertex -261.6 20 70
      vertex -270.678 6.29649 70
      vertex -270.216 5.43103 70
    endloop
  endfacet
  facet normal 0 0 1
    outer loop
      vertex -261.6 20 70
      vertex -271.517 8.07077 70
      vertex -270.678 6.29649 70
    endloop
  endfacet
  facet normal 0 0 1
    outer loop
      vertex -261.6 20 70
      vertex -271.893 8.97746 70
      vertex -271.517 8.07077 70
    endloop
  endfacet
  facet normal 0 0 1
    outer loop
      vertex -261.6 20 70
      vertex -272.554 10.8254 70
      vertex -271.893 8.97746 70
    endloop
  endfacet
  facet normal 0 0 1
    outer loop
      vertex -261.6 20 70
      vertex -272.839 11.7645 70
      vertex -272.554 10.8254 70
    endloop
  endfacet
  facet normal 0 0 1
    outer loop
      vertex -261.6 20 70
      vertex -273.316 13.6684 70
      vertex -272.839 11.7645 70
    endloop
  endfacet
  facet normal 0 0 1
    outer loop
      vertex -261.6 20 70
      vertex -273.507 14.6308 70
      vertex -273.316 13.6684 70
    endloop
  endfacet
  facet normal 0 0 1
    outer loop
      vertex -261.6 20 70
      vertex -273.795 16.5723 70
      vertex -273.507 14.6308 70
    endloop
  endfacet
  facet normal -0 0 1
    outer loop
      vertex -274 140 70
      vertex -261.6 139.99 70
      vertex -88 140 70
    endloop
  endfacet
  facet normal 0 0 1
    outer loop
      vertex -274 20 70
      vertex -261.6 139.99 70
      vertex -274 140 70
    endloop
  endfacet
  facet normal 0 0 1
    outer loop
      vertex -261.6 20 70
      vertex -273.892 17.5489 70
      vertex -273.795 16.5723 70
    endloop
  endfacet
  facet normal -0 0 1
    outer loop
      vertex -244 2.39999 70
      vertex -88 -10 70
      vertex -88 2.39999 70
    endloop
  endfacet
  facet normal 0 0 1
    outer loop
      vertex -244 2.39999 70
      vertex -244 -10 70
      vertex -88 -10 70
    endloop
  endfacet
  facet normal 0 0 1
    outer loop
      vertex -244 2.39999 70
      vertex -244.491 -9.98796 70
      vertex -244 -10 70
    endloop
  endfacet
  facet normal 0 0 1
    outer loop
      vertex -245.725 2.48474 70
      vertex -244.491 -9.98796 70
      vertex -244 2.39999 70
    endloop
  endfacet
  facet normal 0 0 1
    outer loop
      vertex -245.725 2.48474 70
      vertex -246.451 -9.89166 70
      vertex -244.491 -9.98796 70
    endloop
  endfacet
  facet normal 0 0 1
    outer loop
      vertex -245.725 2.48474 70
      vertex -247.428 -9.79546 70
      vertex -246.451 -9.89166 70
    endloop
  endfacet
  facet normal 0 0 1
    outer loop
      vertex -247.434 2.73816 70
      vertex -247.428 -9.79546 70
      vertex -245.725 2.48474 70
    endloop
  endfacet
  facet normal 0 0 1
    outer loop
      vertex -250.332 -9.31602 70
      vertex -247.434 2.73816 70
      vertex -249.109 3.15784 70
    endloop
  endfacet
  facet normal 0 0 1
    outer loop
      vertex -247.434 2.73816 70
      vertex -249.369 -9.50746 70
      vertex -247.428 -9.79546 70
    endloop
  endfacet
  facet normal 0 0 1
    outer loop
      vertex -247.434 2.73816 70
      vertex -250.332 -9.31602 70
      vertex -249.369 -9.50746 70
    endloop
  endfacet
  facet normal 0 0 1
    outer loop
      vertex -253.175 -8.55426 70
      vertex -249.109 3.15784 70
      vertex -250.735 3.7397 70
    endloop
  endfacet
  facet normal 0 0 1
    outer loop
      vertex -249.109 3.15784 70
      vertex -252.235 -8.83913 70
      vertex -250.332 -9.31602 70
    endloop
  endfacet
  facet normal 0 0 1
    outer loop
      vertex -255.929 -7.51749 70
      vertex -250.735 3.7397 70
      vertex -252.297 4.47816 70
    endloop
  endfacet
  facet normal 0 0 1
    outer loop
      vertex -249.109 3.15784 70
      vertex -253.175 -8.55426 70
      vertex -252.235 -8.83913 70
    endloop
  endfacet
  facet normal 0 0 1
    outer loop
      vertex -258.569 -6.21571 70
      vertex -252.297 4.47816 70
      vertex -253.778 5.36612 70
    endloop
  endfacet
  facet normal 0 0 1
    outer loop
      vertex -250.735 3.7397 70
      vertex -255.023 -7.89305 70
      vertex -253.175 -8.55426 70
    endloop
  endfacet
  facet normal 0 0 1
    outer loop
      vertex -261.068 -4.66147 70
      vertex -253.778 5.36612 70
      vertex -255.165 6.395 70
    endloop
  endfacet
  facet normal 0 0 1
    outer loop
      vertex -250.735 3.7397 70
      vertex -255.929 -7.51749 70
      vertex -255.023 -7.89305 70
    endloop
  endfacet
  facet normal 0 0 1
    outer loop
      vertex -262.645 -3.49229 70
      vertex -255.165 6.395 70
      vertex -256.445 7.5549 70
    endloop
  endfacet
  facet normal 0 0 1
    outer loop
      vertex -262.645 -3.49229 70
      vertex -256.445 7.5549 70
      vertex -257.605 8.83467 70
    endloop
  endfacet
  facet normal 0 0 1
    outer loop
      vertex -252.297 4.47816 70
      vertex -257.703 -6.67831 70
      vertex -255.929 -7.51749 70
    endloop
  endfacet
  facet normal 0 0 1
    outer loop
      vertex -252.297 4.47816 70
      vertex -258.569 -6.21571 70
      vertex -257.703 -6.67831 70
    endloop
  endfacet
  facet normal 0 0 1
    outer loop
      vertex -262.645 -3.49229 70
      vertex -257.605 8.83467 70
      vertex -258.634 10.222 70
    endloop
  endfacet
  facet normal 0 0 1
    outer loop
      vertex -262.645 -3.49229 70
      vertex -258.634 10.222 70
      vertex -259.522 11.7034 70
    endloop
  endfacet
  facet normal 0 0 1
    outer loop
      vertex -253.778 5.36612 70
      vertex -260.252 -5.20668 70
      vertex -258.569 -6.21571 70
    endloop
  endfacet
  facet normal 0 0 1
    outer loop
      vertex -262.645 -3.49229 70
      vertex -259.522 11.7034 70
      vertex -260.26 13.2648 70
    endloop
  endfacet
  facet normal 0 0 1
    outer loop
      vertex -262.645 -3.49229 70
      vertex -260.26 13.2648 70
      vertex -260.842 14.891 70
    endloop
  endfacet
  facet normal 0 0 1
    outer loop
      vertex -253.778 5.36612 70
      vertex -261.068 -4.66147 70
      vertex -260.252 -5.20668 70
    endloop
  endfacet
  facet normal 0 0 1
    outer loop
      vertex -262.645 -3.49229 70
      vertex -260.842 14.891 70
      vertex -261.262 16.5664 70
    endloop
  endfacet
  facet normal 0 0 1
    outer loop
      vertex -262.645 -3.49229 70
      vertex -261.262 16.5664 70
      vertex -261.515 18.2749 70
    endloop
  endfacet
  facet normal 0 0 1
    outer loop
      vertex -262.645 -3.49229 70
      vertex -261.515 18.2749 70
      vertex -261.6 20 70
    endloop
  endfacet
  facet normal 0 0 1
    outer loop
      vertex -255.165 6.395 70
      vertex -262.645 -3.49229 70
      vertex -261.068 -4.66147 70
    endloop
  endfacet
  facet normal 0 1 0
    outer loop
      vertex -261.6 140 67.6
      vertex -261.6 140 25
      vertex -264 140 67.6
    endloop
  endfacet
  facet normal 0 0 0
    outer loop
      vertex -261.6 140 67.6
      vertex -261.6 140 5
      vertex -261.6 140 25
    endloop
  endfacet
  facet normal 0 0 0
    outer loop
      vertex -261.6 140 0
      vertex -261.6 140 5
      vertex -261.6 140 67.6
    endloop
  endfacet
  facet normal 0 1 -0
    outer loop
      vertex -261.6 140 0
      vertex -264 140 5
      vertex -261.6 140 5
    endloop
  endfacet
  facet normal 0 1 0
    outer loop
      vertex -264 140 5
      vertex -261.6 140 0
      vertex -264 140 0
    endloop
  endfacet
  facet normal 0 1 0
    outer loop
      vertex -261.6 140 67.6
      vertex -88 140 70
      vertex -88 140 67.6
    endloop
  endfacet
  facet normal 0 1 0
    outer loop
      vertex -88 140 70
      vertex -261.6 140 67.6
      vertex -274 140 70
    endloop
  endfacet
  facet normal 0 1 -0
    outer loop
      vertex -264 140 67.6
      vertex -274 140 70
      vertex -261.6 140 67.6
    endloop
  endfacet
  facet normal 0 1 0
    outer loop
      vertex -274 140 70
      vertex -264 140 67.6
      vertex -274 140 67.6
    endloop
  endfacet
  facet normal 0 1 0
    outer loop
      vertex -264 140 67.6
      vertex -261.6 140 25
      vertex -264 140 25
    endloop
  endfacet
  facet normal 0 1 0
    outer loop
      vertex -88.01 2.39999 49
      vertex -88 2.39999 70
      vertex -88 2.39999 49.005
    endloop
  endfacet
  facet normal 0 1 0
    outer loop
      vertex -88 2.39999 70
      vertex -88.01 2.39999 49
      vertex -244 2.39999 70
    endloop
  endfacet
  facet normal 0 1 -0
    outer loop
      vertex -88.01 2.39999 21
      vertex -244 2.39999 70
      vertex -88.01 2.39999 49
    endloop
  endfacet
  facet normal 0 1 -0
    outer loop
      vertex -88 2.39999 0
      vertex -88.01 2.39999 21
      vertex -88 2.39999 20.995
    endloop
  endfacet
  facet normal 0 1 0
    outer loop
      vertex -88.01 2.39999 21
      vertex -88 2.39999 0
      vertex -244 2.39999 0
    endloop
  endfacet
  facet normal 0 1 0
    outer loop
      vertex -88.01 2.39999 21
      vertex -244 2.39999 0
      vertex -244 2.39999 70
    endloop
  endfacet
  facet normal 0.0490712 0.998795 -0
    outer loop
      vertex -244 2.39999 0
      vertex -245.725 2.48474 70
      vertex -244 2.39999 70
    endloop
  endfacet
  facet normal 0.0490712 0.998795 0
    outer loop
      vertex -245.725 2.48474 70
      vertex -244 2.39999 0
      vertex -245.725 2.48474 0
    endloop
  endfacet
  facet normal 0.146682 0.989184 -0
    outer loop
      vertex -245.725 2.48474 0
      vertex -247.434 2.73816 70
      vertex -245.725 2.48474 70
    endloop
  endfacet
  facet normal 0.146682 0.989184 0
    outer loop
      vertex -247.434 2.73816 70
      vertex -245.725 2.48474 0
      vertex -247.434 2.73816 0
    endloop
  endfacet
  facet normal 0.243042 0.970016 -0
    outer loop
      vertex -247.434 2.73816 0
      vertex -249.109 3.15784 70
      vertex -247.434 2.73816 70
    endloop
  endfacet
  facet normal 0.243042 0.970016 0
    outer loop
      vertex -249.109 3.15784 70
      vertex -247.434 2.73816 0
      vertex -249.109 3.15784 0
    endloop
  endfacet
  facet normal 0.336925 0.941532 -0
    outer loop
      vertex -249.109 3.15784 0
      vertex -250.735 3.7397 70
      vertex -249.109 3.15784 70
    endloop
  endfacet
  facet normal 0.336925 0.941532 0
    outer loop
      vertex -250.735 3.7397 70
      vertex -249.109 3.15784 0
      vertex -250.735 3.7397 0
    endloop
  endfacet
  facet normal 0.427408 0.904059 -0
    outer loop
      vertex -250.735 3.7397 0
      vertex -252.297 4.47816 70
      vertex -250.735 3.7397 70
    endloop
  endfacet
  facet normal 0.427408 0.904059 0
    outer loop
      vertex -252.297 4.47816 70
      vertex -250.735 3.7397 0
      vertex -252.297 4.47816 0
    endloop
  endfacet
  facet normal 0.514223 0.857656 -0
    outer loop
      vertex -252.297 4.47816 0
      vertex -253.778 5.36612 70
      vertex -252.297 4.47816 70
    endloop
  endfacet
  facet normal 0.514223 0.857656 0
    outer loop
      vertex -253.778 5.36612 70
      vertex -252.297 4.47816 0
      vertex -253.778 5.36612 0
    endloop
  endfacet
  facet normal 0.595778 0.803149 -0
    outer loop
      vertex -253.778 5.36612 0
      vertex -255.165 6.395 70
      vertex -253.778 5.36612 70
    endloop
  endfacet
  facet normal 0.595778 0.803149 0
    outer loop
      vertex -255.165 6.395 70
      vertex -253.778 5.36612 0
      vertex -255.165 6.395 0
    endloop
  endfacet
  facet normal 0.671488 0.741016 -0
    outer loop
      vertex -255.165 6.395 0
      vertex -256.445 7.5549 70
      vertex -255.165 6.395 70
    endloop
  endfacet
  facet normal 0.671488 0.741016 0
    outer loop
      vertex -256.445 7.5549 70
      vertex -255.165 6.395 0
      vertex -256.445 7.5549 0
    endloop
  endfacet
  facet normal 0.740927 0.671586 0
    outer loop
      vertex -256.445 7.5549 70
      vertex -257.605 8.83467 0
      vertex -257.605 8.83467 70
    endloop
  endfacet
  facet normal 0.740927 0.671586 0
    outer loop
      vertex -257.605 8.83467 0
      vertex -256.445 7.5549 70
      vertex -256.445 7.5549 0
    endloop
  endfacet
  facet normal 0.803184 0.595731 0
    outer loop
      vertex -257.605 8.83467 70
      vertex -258.634 10.222 0
      vertex -258.634 10.222 70
    endloop
  endfacet
  facet normal 0.803184 0.595731 0
    outer loop
      vertex -258.634 10.222 0
      vertex -257.605 8.83467 70
      vertex -257.605 8.83467 0
    endloop
  endfacet
  facet normal 0.857707 0.514138 0
    outer loop
      vertex -258.634 10.222 70
      vertex -259.522 11.7034 0
      vertex -259.522 11.7034 70
    endloop
  endfacet
  facet normal 0.857707 0.514138 0
    outer loop
      vertex -259.522 11.7034 0
      vertex -258.634 10.222 70
      vertex -258.634 10.222 0
    endloop
  endfacet
  facet normal 0.904098 0.427325 0
    outer loop
      vertex -259.522 11.7034 70
      vertex -260.26 13.2648 0
      vertex -260.26 13.2648 70
    endloop
  endfacet
  facet normal 0.904098 0.427325 0
    outer loop
      vertex -260.26 13.2648 0
      vertex -259.522 11.7034 70
      vertex -259.522 11.7034 0
    endloop
  endfacet
  facet normal 0.941519 0.33696 0
    outer loop
      vertex -260.26 13.2648 70
      vertex -260.842 14.891 0
      vertex -260.842 14.891 70
    endloop
  endfacet
  facet normal 0.941519 0.33696 0
    outer loop
      vertex -260.842 14.891 0
      vertex -260.26 13.2648 70
      vertex -260.26 13.2648 0
    endloop
  endfacet
  facet normal 0.969986 0.243162 0
    outer loop
      vertex -260.842 14.891 70
      vertex -261.262 16.5664 0
      vertex -261.262 16.5664 70
    endloop
  endfacet
  facet normal 0.969986 0.243162 0
    outer loop
      vertex -261.262 16.5664 0
      vertex -260.842 14.891 70
      vertex -260.842 14.891 0
    endloop
  endfacet
  facet normal 0.989213 0.146486 0
    outer loop
      vertex -261.262 16.5664 70
      vertex -261.515 18.2749 0
      vertex -261.515 18.2749 70
    endloop
  endfacet
  facet normal 0.989213 0.146486 0
    outer loop
      vertex -261.515 18.2749 0
      vertex -261.262 16.5664 70
      vertex -261.262 16.5664 0
    endloop
  endfacet
  facet normal 0.998788 0.0492128 0
    outer loop
      vertex -261.515 18.2749 70
      vertex -261.6 20 0
      vertex -261.6 20 70
    endloop
  endfacet
  facet normal 0.998788 0.0492128 0
    outer loop
      vertex -261.6 20 0
      vertex -261.515 18.2749 70
      vertex -261.515 18.2749 0
    endloop
  endfacet
  facet normal 1 0 0
    outer loop
      vertex -261.6 139.99 70
      vertex -261.6 20 70
      vertex -261.6 139.99 67.6
    endloop
  endfacet
  facet normal 1 -0 0
    outer loop
      vertex -261.6 139.99 67.6
      vertex -261.6 140 0
      vertex -261.6 140 67.6
    endloop
  endfacet
  facet normal 1 0 0
    outer loop
      vertex -261.6 20 0
      vertex -261.6 139.99 67.6
      vertex -261.6 20 70
    endloop
  endfacet
  facet normal 1 0 0
    outer loop
      vertex -261.6 139.99 67.6
      vertex -261.6 20 0
      vertex -261.6 140 0
    endloop
  endfacet
  facet normal -0.998803 -0.048911 0
    outer loop
      vertex -263.904 18.0396 0
      vertex -264 20 67.6
      vertex -264 20 0
    endloop
  endfacet
  facet normal -0.998803 -0.048911 0
    outer loop
      vertex -264 20 67.6
      vertex -263.904 18.0396 0
      vertex -263.904 18.0396 67.6
    endloop
  endfacet
  facet normal -0.989175 -0.146741 0
    outer loop
      vertex -263.616 16.0982 0
      vertex -263.904 18.0396 67.6
      vertex -263.904 18.0396 0
    endloop
  endfacet
  facet normal -0.989175 -0.146741 0
    outer loop
      vertex -263.904 18.0396 67.6
      vertex -263.616 16.0982 0
      vertex -263.616 16.0982 67.6
    endloop
  endfacet
  facet normal -0.970019 -0.243027 0
    outer loop
      vertex -263.139 14.1943 0
      vertex -263.616 16.0982 67.6
      vertex -263.616 16.0982 0
    endloop
  endfacet
  facet normal -0.970019 -0.243027 0
    outer loop
      vertex -263.616 16.0982 67.6
      vertex -263.139 14.1943 0
      vertex -263.139 14.1943 67.6
    endloop
  endfacet
  facet normal -0.94158 -0.336788 0
    outer loop
      vertex -262.478 12.3463 0
      vertex -263.139 14.1943 67.6
      vertex -263.139 14.1943 0
    endloop
  endfacet
  facet normal -0.94158 -0.336788 0
    outer loop
      vertex -263.139 14.1943 67.6
      vertex -262.478 12.3463 0
      vertex -262.478 12.3463 67.6
    endloop
  endfacet
  facet normal -0.903819 -0.427916 0
    outer loop
      vertex -261.638 10.5721 0
      vertex -262.478 12.3463 67.6
      vertex -262.478 12.3463 0
    endloop
  endfacet
  facet normal -0.903819 -0.427916 0
    outer loop
      vertex -262.478 12.3463 67.6
      vertex -261.638 10.5721 0
      vertex -261.638 10.5721 67.6
    endloop
  endfacet
  facet normal -0.857743 -0.514079 0
    outer loop
      vertex -260.629 8.88858 0
      vertex -261.638 10.5721 67.6
      vertex -261.638 10.5721 0
    endloop
  endfacet
  facet normal -0.857743 -0.514079 0
    outer loop
      vertex -261.638 10.5721 67.6
      vertex -260.629 8.88858 0
      vertex -260.629 8.88858 67.6
    endloop
  endfacet
  facet normal -0.80325 -0.595642 0
    outer loop
      vertex -259.46 7.31213 0
      vertex -260.629 8.88858 67.6
      vertex -260.629 8.88858 0
    endloop
  endfacet
  facet normal -0.80325 -0.595642 0
    outer loop
      vertex -260.629 8.88858 67.6
      vertex -259.46 7.31213 0
      vertex -259.46 7.31213 67.6
    endloop
  endfacet
  facet normal -0.740972 -0.671536 0
    outer loop
      vertex -258.142 5.85785 0
      vertex -259.46 7.31213 67.6
      vertex -259.46 7.31213 0
    endloop
  endfacet
  facet normal -0.740972 -0.671536 0
    outer loop
      vertex -259.46 7.31213 67.6
      vertex -258.142 5.85785 0
      vertex -258.142 5.85785 67.6
    endloop
  endfacet
  facet normal -0.671626 -0.74089 0
    outer loop
      vertex -258.142 5.85785 0
      vertex -256.688 4.53978 67.6
      vertex -258.142 5.85785 67.6
    endloop
  endfacet
  facet normal -0.671626 -0.74089 -0
    outer loop
      vertex -256.688 4.53978 67.6
      vertex -258.142 5.85785 0
      vertex -256.688 4.53978 0
    endloop
  endfacet
  facet normal -0.595564 -0.803308 0
    outer loop
      vertex -256.688 4.53978 0
      vertex -255.111 3.37061 67.6
      vertex -256.688 4.53978 67.6
    endloop
  endfacet
  facet normal -0.595564 -0.803308 -0
    outer loop
      vertex -255.111 3.37061 67.6
      vertex -256.688 4.53978 0
      vertex -255.111 3.37061 0
    endloop
  endfacet
  facet normal -0.514211 -0.857664 0
    outer loop
      vertex -255.111 3.37061 0
      vertex -253.428 2.36157 67.6
      vertex -255.111 3.37061 67.6
    endloop
  endfacet
  facet normal -0.514211 -0.857664 -0
    outer loop
      vertex -253.428 2.36157 67.6
      vertex -255.111 3.37061 0
      vertex -253.428 2.36157 0
    endloop
  endfacet
  facet normal -0.427609 -0.903964 0
    outer loop
      vertex -253.428 2.36157 0
      vertex -251.654 1.5224 67.6
      vertex -253.428 2.36157 67.6
    endloop
  endfacet
  facet normal -0.427609 -0.903964 -0
    outer loop
      vertex -251.654 1.5224 67.6
      vertex -253.428 2.36157 0
      vertex -251.654 1.5224 0
    endloop
  endfacet
  facet normal -0.336883 -0.941547 0
    outer loop
      vertex -251.654 1.5224 0
      vertex -249.806 0.861191 67.6
      vertex -251.654 1.5224 67.6
    endloop
  endfacet
  facet normal -0.336883 -0.941547 -0
    outer loop
      vertex -249.806 0.861191 67.6
      vertex -251.654 1.5224 0
      vertex -249.806 0.861191 0
    endloop
  endfacet
  facet normal -0.242966 -0.970035 0
    outer loop
      vertex -249.806 0.861191 0
      vertex -247.902 0.384293 67.6
      vertex -249.806 0.861191 67.6
    endloop
  endfacet
  facet normal -0.242966 -0.970035 -0
    outer loop
      vertex -247.902 0.384293 67.6
      vertex -249.806 0.861191 0
      vertex -247.902 0.384293 0
    endloop
  endfacet
  facet normal -0.146694 -0.989182 0
    outer loop
      vertex -247.902 0.384293 0
      vertex -245.96 0.0962982 67.6
      vertex -247.902 0.384293 67.6
    endloop
  endfacet
  facet normal -0.146694 -0.989182 -0
    outer loop
      vertex -245.96 0.0962982 67.6
      vertex -247.902 0.384293 0
      vertex -245.96 0.0962982 0
    endloop
  endfacet
  facet normal -0.0490725 -0.998795 0
    outer loop
      vertex -245.96 0.0962982 0
      vertex -244 0 67.6
      vertex -245.96 0.0962982 67.6
    endloop
  endfacet
  facet normal -0.0490725 -0.998795 -0
    outer loop
      vertex -244 0 67.6
      vertex -245.96 0.0962982 0
      vertex -244 0 0
    endloop
  endfacet
  facet normal 0 0 -1
    outer loop
      vertex -244 -10 67.6
      vertex -88 0 67.6
      vertex -88 -10 67.6
    endloop
  endfacet
  facet normal 0 0 -1
    outer loop
      vertex -244 -10 67.6
      vertex -244 0 67.6
      vertex -88 0 67.6
    endloop
  endfacet
  facet normal 0 0 -1
    outer loop
      vertex -244.491 -9.98796 67.6
      vertex -244 0 67.6
      vertex -244 -10 67.6
    endloop
  endfacet
  facet normal 0 0 -1
    outer loop
      vertex -244.491 -9.98796 67.6
      vertex -245.96 0.0962982 67.6
      vertex -244 0 67.6
    endloop
  endfacet
  facet normal 0 0 -1
    outer loop
      vertex -246.451 -9.89166 67.6
      vertex -245.96 0.0962982 67.6
      vertex -244.491 -9.98796 67.6
    endloop
  endfacet
  facet normal 0 0 -1
    outer loop
      vertex -247.428 -9.79546 67.6
      vertex -245.96 0.0962982 67.6
      vertex -246.451 -9.89166 67.6
    endloop
  endfacet
  facet normal 0 0 -1
    outer loop
      vertex -247.428 -9.79546 67.6
      vertex -247.902 0.384293 67.6
      vertex -245.96 0.0962982 67.6
    endloop
  endfacet
  facet normal 0 0 -1
    outer loop
      vertex -249.369 -9.50746 67.6
      vertex -247.902 0.384293 67.6
      vertex -247.428 -9.79546 67.6
    endloop
  endfacet
  facet normal 0 0 -1
    outer loop
      vertex -250.332 -9.31602 67.6
      vertex -247.902 0.384293 67.6
      vertex -249.369 -9.50746 67.6
    endloop
  endfacet
  facet normal -0 0 -1
    outer loop
      vertex -247.902 0.384293 67.6
      vertex -250.332 -9.31602 67.6
      vertex -249.806 0.861191 67.6
    endloop
  endfacet
  facet normal 0 0 -1
    outer loop
      vertex -252.235 -8.83913 67.6
      vertex -249.806 0.861191 67.6
      vertex -250.332 -9.31602 67.6
    endloop
  endfacet
  facet normal 0 0 -1
    outer loop
      vertex -253.175 -8.55426 67.6
      vertex -249.806 0.861191 67.6
      vertex -252.235 -8.83913 67.6
    endloop
  endfacet
  facet normal -0 0 -1
    outer loop
      vertex -249.806 0.861191 67.6
      vertex -253.175 -8.55426 67.6
      vertex -251.654 1.5224 67.6
    endloop
  endfacet
  facet normal 0 0 -1
    outer loop
      vertex -255.023 -7.89305 67.6
      vertex -251.654 1.5224 67.6
      vertex -253.175 -8.55426 67.6
    endloop
  endfacet
  facet normal 0 0 -1
    outer loop
      vertex -255.929 -7.51749 67.6
      vertex -251.654 1.5224 67.6
      vertex -255.023 -7.89305 67.6
    endloop
  endfacet
  facet normal -0 0 -1
    outer loop
      vertex -251.654 1.5224 67.6
      vertex -255.929 -7.51749 67.6
      vertex -253.428 2.36157 67.6
    endloop
  endfacet
  facet normal 0 0 -1
    outer loop
      vertex -257.703 -6.67831 67.6
      vertex -253.428 2.36157 67.6
      vertex -255.929 -7.51749 67.6
    endloop
  endfacet
  facet normal 0 0 -1
    outer loop
      vertex -258.569 -6.21571 67.6
      vertex -253.428 2.36157 67.6
      vertex -257.703 -6.67831 67.6
    endloop
  endfacet
  facet normal -0 0 -1
    outer loop
      vertex -253.428 2.36157 67.6
      vertex -258.569 -6.21571 67.6
      vertex -255.111 3.37061 67.6
    endloop
  endfacet
  facet normal 0 0 -1
    outer loop
      vertex -260.252 -5.20668 67.6
      vertex -255.111 3.37061 67.6
      vertex -258.569 -6.21571 67.6
    endloop
  endfacet
  facet normal 0 0 -1
    outer loop
      vertex -261.068 -4.66147 67.6
      vertex -255.111 3.37061 67.6
      vertex -260.252 -5.20668 67.6
    endloop
  endfacet
  facet normal -0 0 -1
    outer loop
      vertex -255.111 3.37061 67.6
      vertex -261.068 -4.66147 67.6
      vertex -256.688 4.53978 67.6
    endloop
  endfacet
  facet normal 0 0 -1
    outer loop
      vertex -262.645 -3.49229 67.6
      vertex -256.688 4.53978 67.6
      vertex -261.068 -4.66147 67.6
    endloop
  endfacet
  facet normal 0 0 -1
    outer loop
      vertex -263.403 -2.86978 67.6
      vertex -256.688 4.53978 67.6
      vertex -262.645 -3.49229 67.6
    endloop
  endfacet
  facet normal -0 0 -1
    outer loop
      vertex -256.688 4.53978 67.6
      vertex -263.403 -2.86978 67.6
      vertex -258.142 5.85785 67.6
    endloop
  endfacet
  facet normal 0 0 -1
    outer loop
      vertex -264.858 -1.55171 67.6
      vertex -258.142 5.85785 67.6
      vertex -263.403 -2.86978 67.6
    endloop
  endfacet
  facet normal 0 0 -1
    outer loop
      vertex -265.552 -0.857697 67.6
      vertex -258.142 5.85785 67.6
      vertex -264.858 -1.55171 67.6
    endloop
  endfacet
  facet normal -0 0 -1
    outer loop
      vertex -258.142 5.85785 67.6
      vertex -265.552 -0.857697 67.6
      vertex -259.46 7.31213 67.6
    endloop
  endfacet
  facet normal 0 0 -1
    outer loop
      vertex -266.87 0.596588 67.6
      vertex -259.46 7.31213 67.6
      vertex -265.552 -0.857697 67.6
    endloop
  endfacet
  facet normal 0 0 -1
    outer loop
      vertex -267.492 1.35513 67.6
      vertex -259.46 7.31213 67.6
      vertex -266.87 0.596588 67.6
    endloop
  endfacet
  facet normal -0 0 -1
    outer loop
      vertex -259.46 7.31213 67.6
      vertex -267.492 1.35513 67.6
      vertex -260.629 8.88858 67.6
    endloop
  endfacet
  facet normal 0 0 -1
    outer loop
      vertex -268.661 2.93158 67.6
      vertex -260.629 8.88858 67.6
      vertex -267.492 1.35513 67.6
    endloop
  endfacet
  facet normal 0 0 -1
    outer loop
      vertex -269.207 3.74756 67.6
      vertex -260.629 8.88858 67.6
      vertex -268.661 2.93158 67.6
    endloop
  endfacet
  facet normal -0 0 -1
    outer loop
      vertex -260.629 8.88858 67.6
      vertex -269.207 3.74756 67.6
      vertex -261.638 10.5721 67.6
    endloop
  endfacet
  facet normal 0 0 -1
    outer loop
      vertex -270.216 5.43103 67.6
      vertex -261.638 10.5721 67.6
      vertex -269.207 3.74756 67.6
    endloop
  endfacet
  facet normal 0 0 -1
    outer loop
      vertex -270.678 6.29649 67.6
      vertex -261.638 10.5721 67.6
      vertex -270.216 5.43103 67.6
    endloop
  endfacet
  facet normal -0 0 -1
    outer loop
      vertex -261.638 10.5721 67.6
      vertex -270.678 6.29649 67.6
      vertex -262.478 12.3463 67.6
    endloop
  endfacet
  facet normal 0 0 -1
    outer loop
      vertex -271.517 8.07077 67.6
      vertex -262.478 12.3463 67.6
      vertex -270.678 6.29649 67.6
    endloop
  endfacet
  facet normal 0 0 -1
    outer loop
      vertex -271.893 8.97746 67.6
      vertex -262.478 12.3463 67.6
      vertex -271.517 8.07077 67.6
    endloop
  endfacet
  facet normal -0 0 -1
    outer loop
      vertex -262.478 12.3463 67.6
      vertex -271.893 8.97746 67.6
      vertex -263.139 14.1943 67.6
    endloop
  endfacet
  facet normal 0 0 -1
    outer loop
      vertex -272.554 10.8254 67.6
      vertex -263.139 14.1943 67.6
      vertex -271.893 8.97746 67.6
    endloop
  endfacet
  facet normal 0 0 -1
    outer loop
      vertex -272.839 11.7645 67.6
      vertex -263.139 14.1943 67.6
      vertex -272.554 10.8254 67.6
    endloop
  endfacet
  facet normal -0 0 -1
    outer loop
      vertex -263.139 14.1943 67.6
      vertex -272.839 11.7645 67.6
      vertex -263.616 16.0982 67.6
    endloop
  endfacet
  facet normal 0 0 -1
    outer loop
      vertex -273.316 13.6684 67.6
      vertex -263.616 16.0982 67.6
      vertex -272.839 11.7645 67.6
    endloop
  endfacet
  facet normal 0 0 -1
    outer loop
      vertex -273.507 14.6308 67.6
      vertex -263.616 16.0982 67.6
      vertex -273.316 13.6684 67.6
    endloop
  endfacet
  facet normal -0 0 -1
    outer loop
      vertex -263.616 16.0982 67.6
      vertex -273.507 14.6308 67.6
      vertex -263.904 18.0396 67.6
    endloop
  endfacet
  facet normal 0 0 -1
    outer loop
      vertex -273.795 16.5723 67.6
      vertex -263.904 18.0396 67.6
      vertex -273.507 14.6308 67.6
    endloop
  endfacet
  facet normal 0 0 -1
    outer loop
      vertex -273.892 17.5489 67.6
      vertex -263.904 18.0396 67.6
      vertex -273.795 16.5723 67.6
    endloop
  endfacet
  facet normal -0 0 -1
    outer loop
      vertex -263.904 18.0396 67.6
      vertex -273.892 17.5489 67.6
      vertex -264 20 67.6
    endloop
  endfacet
  facet normal 0 0 -1
    outer loop
      vertex -264 20 67.6
      vertex -273.892 17.5489 67.6
      vertex -273.988 19.5093 67.6
    endloop
  endfacet
  facet normal -0 0 -1
    outer loop
      vertex -264 20 67.6
      vertex -273.988 19.5093 67.6
      vertex -274 20 67.6
    endloop
  endfacet
  facet normal 0 0 -1
    outer loop
      vertex -264 20 67.6
      vertex -274 20 67.6
      vertex -264 140 67.6
    endloop
  endfacet
  facet normal -0 0 -1
    outer loop
      vertex -264 140 67.6
      vertex -274 20 67.6
      vertex -274 140 67.6
    endloop
  endfacet
  facet normal 0 0 -1
    outer loop
      vertex -261.6 139.99 67.6
      vertex -88 140 67.6
      vertex -88 139.99 67.6
    endloop
  endfacet
  facet normal -0 0 -1
    outer loop
      vertex -88 140 67.6
      vertex -261.6 139.99 67.6
      vertex -261.6 140 67.6
    endloop
  endfacet
  facet normal -1 0 0
    outer loop
      vertex -274 20 67.6
      vertex -274 140 70
      vertex -274 140 67.6
    endloop
  endfacet
  facet normal -1 -0 0
    outer loop
      vertex -274 140 70
      vertex -274 20 67.6
      vertex -274 20 70
    endloop
  endfacet
  facet normal -0.999701 -0.0244476 0
    outer loop
      vertex -273.988 19.5093 67.6
      vertex -274 20 70
      vertex -274 20 67.6
    endloop
  endfacet
  facet normal -0.999701 -0.0244476 0
    outer loop
      vertex -274 20 70
      vertex -273.988 19.5093 67.6
      vertex -273.988 19.5093 70
    endloop
  endfacet
  facet normal -0.998803 -0.048911 0
    outer loop
      vertex -273.892 17.5489 67.6
      vertex -273.988 19.5093 70
      vertex -273.988 19.5093 67.6
    endloop
  endfacet
  facet normal -0.998803 -0.048911 0
    outer loop
      vertex -273.988 19.5093 70
      vertex -273.892 17.5489 67.6
      vertex -273.892 17.5489 70
    endloop
  endfacet
  facet normal -0.995104 -0.0988379 0
    outer loop
      vertex -273.795 16.5723 67.6
      vertex -273.892 17.5489 70
      vertex -273.892 17.5489 67.6
    endloop
  endfacet
  facet normal -0.995104 -0.0988379 0
    outer loop
      vertex -273.892 17.5489 70
      vertex -273.795 16.5723 67.6
      vertex -273.795 16.5723 70
    endloop
  endfacet
  facet normal -0.989176 -0.146733 0
    outer loop
      vertex -273.507 14.6308 67.6
      vertex -273.795 16.5723 70
      vertex -273.795 16.5723 67.6
    endloop
  endfacet
  facet normal -0.989176 -0.146733 0
    outer loop
      vertex -273.795 16.5723 70
      vertex -273.507 14.6308 67.6
      vertex -273.507 14.6308 70
    endloop
  endfacet
  facet normal -0.98087 -0.194666 0
    outer loop
      vertex -273.316 13.6684 67.6
      vertex -273.507 14.6308 70
      vertex -273.507 14.6308 67.6
    endloop
  endfacet
  facet normal -0.98087 -0.194666 0
    outer loop
      vertex -273.507 14.6308 70
      vertex -273.316 13.6684 67.6
      vertex -273.316 13.6684 70
    endloop
  endfacet
  facet normal -0.970019 -0.243027 0
    outer loop
      vertex -272.839 11.7645 67.6
      vertex -273.316 13.6684 70
      vertex -273.316 13.6684 67.6
    endloop
  endfacet
  facet normal -0.970019 -0.243027 0
    outer loop
      vertex -273.316 13.6684 70
      vertex -272.839 11.7645 67.6
      vertex -272.839 11.7645 70
    endloop
  endfacet
  facet normal -0.956904 -0.290403 0
    outer loop
      vertex -272.554 10.8254 67.6
      vertex -272.839 11.7645 70
      vertex -272.839 11.7645 67.6
    endloop
  endfacet
  facet normal -0.956904 -0.290403 0
    outer loop
      vertex -272.839 11.7645 70
      vertex -272.554 10.8254 67.6
      vertex -272.554 10.8254 70
    endloop
  endfacet
  facet normal -0.941577 -0.336798 0
    outer loop
      vertex -271.893 8.97746 67.6
      vertex -272.554 10.8254 70
      vertex -272.554 10.8254 67.6
    endloop
  endfacet
  facet normal -0.941577 -0.336798 0
    outer loop
      vertex -272.554 10.8254 70
      vertex -271.893 8.97746 67.6
      vertex -271.893 8.97746 70
    endloop
  endfacet
  facet normal -0.923722 -0.383063 0
    outer loop
      vertex -271.517 8.07077 67.6
      vertex -271.893 8.97746 70
      vertex -271.893 8.97746 67.6
    endloop
  endfacet
  facet normal -0.923722 -0.383063 0
    outer loop
      vertex -271.893 8.97746 70
      vertex -271.517 8.07077 67.6
      vertex -271.517 8.07077 70
    endloop
  endfacet
  facet normal -0.904023 -0.427483 0
    outer loop
      vertex -270.678 6.29649 67.6
      vertex -271.517 8.07077 70
      vertex -271.517 8.07077 67.6
    endloop
  endfacet
  facet normal -0.904023 -0.427483 0
    outer loop
      vertex -271.517 8.07077 70
      vertex -270.678 6.29649 67.6
      vertex -270.678 6.29649 70
    endloop
  endfacet
  facet normal -0.882175 -0.470923 0
    outer loop
      vertex -270.216 5.43103 67.6
      vertex -270.678 6.29649 70
      vertex -270.678 6.29649 67.6
    endloop
  endfacet
  facet normal -0.882175 -0.470923 0
    outer loop
      vertex -270.678 6.29649 70
      vertex -270.216 5.43103 67.6
      vertex -270.216 5.43103 70
    endloop
  endfacet
  facet normal -0.857736 -0.51409 0
    outer loop
      vertex -269.207 3.74756 67.6
      vertex -270.216 5.43103 70
      vertex -270.216 5.43103 67.6
    endloop
  endfacet
  facet normal -0.857736 -0.51409 0
    outer loop
      vertex -270.216 5.43103 70
      vertex -269.207 3.74756 67.6
      vertex -269.207 3.74756 70
    endloop
  endfacet
  facet normal -0.831103 -0.556119 0
    outer loop
      vertex -268.661 2.93158 67.6
      vertex -269.207 3.74756 70
      vertex -269.207 3.74756 67.6
    endloop
  endfacet
  facet normal -0.831103 -0.556119 0
    outer loop
      vertex -269.207 3.74756 70
      vertex -268.661 2.93158 67.6
      vertex -268.661 2.93158 70
    endloop
  endfacet
  facet normal -0.80325 -0.595642 0
    outer loop
      vertex -267.492 1.35513 67.6
      vertex -268.661 2.93158 70
      vertex -268.661 2.93158 67.6
    endloop
  endfacet
  facet normal -0.80325 -0.595642 0
    outer loop
      vertex -268.661 2.93158 70
      vertex -267.492 1.35513 67.6
      vertex -267.492 1.35513 70
    endloop
  endfacet
  facet normal -0.77327 -0.634077 0
    outer loop
      vertex -266.87 0.596588 67.6
      vertex -267.492 1.35513 70
      vertex -267.492 1.35513 67.6
    endloop
  endfacet
  facet normal -0.77327 -0.634077 0
    outer loop
      vertex -267.492 1.35513 70
      vertex -266.87 0.596588 67.6
      vertex -266.87 0.596588 70
    endloop
  endfacet
  facet normal -0.740973 -0.671535 0
    outer loop
      vertex -265.552 -0.857697 67.6
      vertex -266.87 0.596588 70
      vertex -266.87 0.596588 67.6
    endloop
  endfacet
  facet normal -0.740973 -0.671535 0
    outer loop
      vertex -266.87 0.596588 70
      vertex -265.552 -0.857697 67.6
      vertex -265.552 -0.857697 70
    endloop
  endfacet
  facet normal -0.707113 -0.7071 0
    outer loop
      vertex -265.552 -0.857697 67.6
      vertex -264.858 -1.55171 70
      vertex -265.552 -0.857697 70
    endloop
  endfacet
  facet normal -0.707113 -0.7071 -0
    outer loop
      vertex -264.858 -1.55171 70
      vertex -265.552 -0.857697 67.6
      vertex -264.858 -1.55171 67.6
    endloop
  endfacet
  facet normal -0.671373 -0.74112 0
    outer loop
      vertex -264.858 -1.55171 67.6
      vertex -263.403 -2.86978 70
      vertex -264.858 -1.55171 70
    endloop
  endfacet
  facet normal -0.671373 -0.74112 -0
    outer loop
      vertex -263.403 -2.86978 70
      vertex -264.858 -1.55171 67.6
      vertex -263.403 -2.86978 67.6
    endloop
  endfacet
  facet normal -0.634659 -0.772793 0
    outer loop
      vertex -263.403 -2.86978 67.6
      vertex -262.645 -3.49229 70
      vertex -263.403 -2.86978 70
    endloop
  endfacet
  facet normal -0.634659 -0.772793 -0
    outer loop
      vertex -262.645 -3.49229 70
      vertex -263.403 -2.86978 67.6
      vertex -262.645 -3.49229 67.6
    endloop
  endfacet
  facet normal -0.595567 -0.803306 0
    outer loop
      vertex -262.645 -3.49229 67.6
      vertex -261.068 -4.66147 70
      vertex -262.645 -3.49229 70
    endloop
  endfacet
  facet normal -0.595567 -0.803306 -0
    outer loop
      vertex -261.068 -4.66147 70
      vertex -262.645 -3.49229 67.6
      vertex -261.068 -4.66147 67.6
    endloop
  endfacet
  facet normal -0.555553 -0.831481 0
    outer loop
      vertex -261.068 -4.66147 67.6
      vertex -260.252 -5.20668 70
      vertex -261.068 -4.66147 70
    endloop
  endfacet
  facet normal -0.555553 -0.831481 -0
    outer loop
      vertex -260.252 -5.20668 70
      vertex -261.068 -4.66147 67.6
      vertex -260.252 -5.20668 67.6
    endloop
  endfacet
  facet normal -0.514207 -0.857666 0
    outer loop
      vertex -260.252 -5.20668 67.6
      vertex -258.569 -6.21571 70
      vertex -260.252 -5.20668 70
    endloop
  endfacet
  facet normal -0.514207 -0.857666 -0
    outer loop
      vertex -258.569 -6.21571 70
      vertex -260.252 -5.20668 67.6
      vertex -258.569 -6.21571 67.6
    endloop
  endfacet
  facet normal -0.47117 -0.882043 0
    outer loop
      vertex -258.569 -6.21571 67.6
      vertex -257.703 -6.67831 70
      vertex -258.569 -6.21571 70
    endloop
  endfacet
  facet normal -0.47117 -0.882043 -0
    outer loop
      vertex -257.703 -6.67831 70
      vertex -258.569 -6.21571 67.6
      vertex -257.703 -6.67831 67.6
    endloop
  endfacet
  facet normal -0.427614 -0.903962 0
    outer loop
      vertex -257.703 -6.67831 67.6
      vertex -255.929 -7.51749 70
      vertex -257.703 -6.67831 70
    endloop
  endfacet
  facet normal -0.427614 -0.903962 -0
    outer loop
      vertex -255.929 -7.51749 70
      vertex -257.703 -6.67831 67.6
      vertex -255.929 -7.51749 67.6
    endloop
  endfacet
  facet normal -0.382929 -0.923778 0
    outer loop
      vertex -255.929 -7.51749 67.6
      vertex -255.023 -7.89305 70
      vertex -255.929 -7.51749 70
    endloop
  endfacet
  facet normal -0.382929 -0.923778 -0
    outer loop
      vertex -255.023 -7.89305 70
      vertex -255.929 -7.51749 67.6
      vertex -255.023 -7.89305 67.6
    endloop
  endfacet
  facet normal -0.336883 -0.941546 0
    outer loop
      vertex -255.023 -7.89305 67.6
      vertex -253.175 -8.55426 70
      vertex -255.023 -7.89305 70
    endloop
  endfacet
  facet normal -0.336883 -0.941546 -0
    outer loop
      vertex -253.175 -8.55426 70
      vertex -255.023 -7.89305 67.6
      vertex -253.175 -8.55426 67.6
    endloop
  endfacet
  facet normal -0.290027 -0.957018 0
    outer loop
      vertex -253.175 -8.55426 67.6
      vertex -252.235 -8.83913 70
      vertex -253.175 -8.55426 70
    endloop
  endfacet
  facet normal -0.290027 -0.957018 -0
    outer loop
      vertex -252.235 -8.83913 70
      vertex -253.175 -8.55426 67.6
      vertex -252.235 -8.83913 67.6
    endloop
  endfacet
  facet normal -0.243082 -0.970006 0
    outer loop
      vertex -252.235 -8.83913 67.6
      vertex -250.332 -9.31602 70
      vertex -252.235 -8.83913 70
    endloop
  endfacet
  facet normal -0.243082 -0.970006 -0
    outer loop
      vertex -250.332 -9.31602 70
      vertex -252.235 -8.83913 67.6
      vertex -250.332 -9.31602 67.6
    endloop
  endfacet
  facet normal -0.19498 -0.980807 0
    outer loop
      vertex -250.332 -9.31602 67.6
      vertex -249.369 -9.50746 70
      vertex -250.332 -9.31602 70
    endloop
  endfacet
  facet normal -0.19498 -0.980807 -0
    outer loop
      vertex -249.369 -9.50746 70
      vertex -250.332 -9.31602 67.6
      vertex -249.369 -9.50746 67.6
    endloop
  endfacet
  facet normal -0.14677 -0.989171 0
    outer loop
      vertex -249.369 -9.50746 67.6
      vertex -247.428 -9.79546 70
      vertex -249.369 -9.50746 70
    endloop
  endfacet
  facet normal -0.14677 -0.989171 -0
    outer loop
      vertex -247.428 -9.79546 70
      vertex -249.369 -9.50746 67.6
      vertex -247.428 -9.79546 67.6
    endloop
  endfacet
  facet normal -0.0979908 -0.995187 0
    outer loop
      vertex -247.428 -9.79546 67.6
      vertex -246.451 -9.89166 70
      vertex -247.428 -9.79546 70
    endloop
  endfacet
  facet normal -0.0979908 -0.995187 -0
    outer loop
      vertex -246.451 -9.89166 70
      vertex -247.428 -9.79546 67.6
      vertex -246.451 -9.89166 67.6
    endloop
  endfacet
  facet normal -0.0490735 -0.998795 0
    outer loop
      vertex -246.451 -9.89166 67.6
      vertex -244.491 -9.98796 70
      vertex -246.451 -9.89166 70
    endloop
  endfacet
  facet normal -0.0490735 -0.998795 -0
    outer loop
      vertex -244.491 -9.98796 70
      vertex -246.451 -9.89166 67.6
      vertex -244.491 -9.98796 67.6
    endloop
  endfacet
  facet normal -0.024514 -0.999699 0
    outer loop
      vertex -244.491 -9.98796 67.6
      vertex -244 -10 70
      vertex -244.491 -9.98796 70
    endloop
  endfacet
  facet normal -0.024514 -0.999699 -0
    outer loop
      vertex -244 -10 70
      vertex -244.491 -9.98796 67.6
      vertex -244 -10 67.6
    endloop
  endfacet
  facet normal 0 -1 0
    outer loop
      vertex -244 -10 67.6
      vertex -88 -10 70
      vertex -244 -10 70
    endloop
  endfacet
  facet normal 0 -1 -0
    outer loop
      vertex -88 -10 70
      vertex -244 -10 67.6
      vertex -88 -10 67.6
    endloop
  endfacet
  facet normal 0 -1 0
    outer loop
      vertex -261.6 139.99 67.6
      vertex -88 139.99 70
      vertex -261.6 139.99 70
    endloop
  endfacet
  facet normal 0 -1 -0
    outer loop
      vertex -88 139.99 70
      vertex -261.6 139.99 67.6
      vertex -88 139.99 67.6
    endloop
  endfacet
  facet normal 1 -0 0
    outer loop
      vertex -88 139.99 70
      vertex -88 140 67.6
      vertex -88 140 70
    endloop
  endfacet
  facet normal 1 0 0
    outer loop
      vertex -88 140 67.6
      vertex -88 139.99 70
      vertex -88 139.99 67.6
    endloop
  endfacet
  facet normal 1 -0 0
    outer loop
      vertex -88 0 20.995
      vertex -88 2.39999 0
      vertex -88 2.39999 20.995
    endloop
  endfacet
  facet normal 1 0 0
    outer loop
      vertex -88 2.39999 0
      vertex -88 0 20.995
      vertex -88 0 0
    endloop
  endfacet
  facet normal 1 0 0
    outer loop
      vertex -88 2.39999 70
      vertex -88 0 67.6
      vertex -88 2.39999 49.005
    endloop
  endfacet
  facet normal 1 -0 0
    outer loop
      vertex -88 -10 70
      vertex -88 0 67.6
      vertex -88 2.39999 70
    endloop
  endfacet
  facet normal 1 0 0
    outer loop
      vertex -88 0 67.6
      vertex -88 -10 70
      vertex -88 -10 67.6
    endloop
  endfacet
  facet normal 1 0 0
    outer loop
      vertex -88 2.39999 49.005
      vertex -88 0 67.6
      vertex -88 0 49.005
    endloop
  endfacet
  facet normal 0 1 0
    outer loop
      vertex -78 2.4 54
      vertex -88.01 2.4 21
      vertex -88.01 2.4 49
    endloop
  endfacet
  facet normal -0 1 0
    outer loop
      vertex -88.01 2.4 21
      vertex -78 2.4 54
      vertex -78 2.4 16
    endloop
  endfacet
  facet normal 1 -0 0
    outer loop
      vertex -78 0 54
      vertex -78 2.4 16
      vertex -78 2.4 54
    endloop
  endfacet
  facet normal 1 0 0
    outer loop
      vertex -78 2.4 16
      vertex -78 0 54
      vertex -78 0 16
    endloop
  endfacet
  facet normal -0.446856 0 -0.894606
    outer loop
      vertex -88 0 20.995
      vertex -78 2.4 16
      vertex -78 0 16
    endloop
  endfacet
  facet normal -0.446856 -0 -0.894606
    outer loop
      vertex -88 2.39999 20.995
      vertex -78 2.4 16
      vertex -88 0 20.995
    endloop
  endfacet
  facet normal -0.447214 -0 -0.894427
    outer loop
      vertex -88.01 2.4 21
      vertex -88 2.39999 20.995
      vertex -88.01 2.39999 21
    endloop
  endfacet
  facet normal -0.407976 0.407976 -0.816768
    outer loop
      vertex -88 2.39999 20.995
      vertex -88.01 2.4 21
      vertex -78 2.4 16
    endloop
  endfacet
  facet normal -1 0 0
    outer loop
      vertex -88.01 2.39999 21
      vertex -88.01 2.4 49
      vertex -88.01 2.4 21
    endloop
  endfacet
  facet normal -1 -0 0
    outer loop
      vertex -88.01 2.4 49
      vertex -88.01 2.39999 21
      vertex -88.01 2.39999 49
    endloop
  endfacet
  facet normal -0.446856 0 0.894606
    outer loop
      vertex -78 2.4 54
      vertex -88 2.39999 49.005
      vertex -78 0 54
    endloop
  endfacet
  facet normal -0.407976 0.407976 0.816768
    outer loop
      vertex -88.01 2.4 49
      vertex -88 2.39999 49.005
      vertex -78 2.4 54
    endloop
  endfacet
  facet normal -0.447214 0 0.894427
    outer loop
      vertex -88 2.39999 49.005
      vertex -88.01 2.4 49
      vertex -88.01 2.39999 49
    endloop
  endfacet
  facet normal -0.446856 0 0.894606
    outer loop
      vertex -78 0 54
      vertex -88 2.39999 49.005
      vertex -88 0 49.005
    endloop
  endfacet
endsolid OpenSCAD_Model
