solid OpenSCAD_Model
  facet normal 1 0 0
    outer loop
      vertex -42.5 2.39999 0
      vertex -42.5 2.4 0.00999928
      vertex -42.5 2.39999 0.00999928
    endloop
  endfacet
  facet normal 1 -0 0
    outer loop
      vertex -42.5 2.4 -15
      vertex -42.5 3.9 -18
      vertex -42.5 3.9 -15
    endloop
  endfacet
  facet normal 1 0 0
    outer loop
      vertex -42.5 2.4 0.00999928
      vertex -42.5 2.39999 0
      vertex -42.5 2.4 -15
    endloop
  endfacet
  facet normal 1 -0 0
    outer loop
      vertex -42.5 0 0
      vertex -42.5 2.4 -15
      vertex -42.5 2.39999 0
    endloop
  endfacet
  facet normal 1 0 0
    outer loop
      vertex -42.5 2.4 -15
      vertex -42.5 0 -18
      vertex -42.5 3.9 -18
    endloop
  endfacet
  facet normal 1 0 0
    outer loop
      vertex -42.5 0 -18
      vertex -42.5 2.4 -15
      vertex -42.5 0 0
    endloop
  endfacet
  facet normal -0 0 1
    outer loop
      vertex -87.5 2.4 0.00999928
      vertex -42.5 2.39999 0.00999928
      vertex -42.5 2.4 0.00999928
    endloop
  endfacet
  facet normal 0 0 1
    outer loop
      vertex -42.5 2.39999 0.00999928
      vertex -87.5 2.4 0.00999928
      vertex -87.5 2.39999 0.00999928
    endloop
  endfacet
  facet normal 0 0 -1
    outer loop
      vertex -87.5 0 -18
      vertex -42.5 3.9 -18
      vertex -42.5 0 -18
    endloop
  endfacet
  facet normal -0 0 -1
    outer loop
      vertex -42.5 3.9 -18
      vertex -87.5 0 -18
      vertex -87.5 3.9 -18
    endloop
  endfacet
  facet normal -1 0 0
    outer loop
      vertex -87.5 3.9 -18
      vertex -87.5 2.4 -15
      vertex -87.5 3.9 -15
    endloop
  endfacet
  facet normal -1 0 0
    outer loop
      vertex -87.5 2.4 -15
      vertex -87.5 2.39999 0
      vertex -87.5 2.4 0.00999928
    endloop
  endfacet
  facet normal -1 0 0
    outer loop
      vertex -87.5 0 -18
      vertex -87.5 2.4 -15
      vertex -87.5 3.9 -18
    endloop
  endfacet
  facet normal -1 0 0
    outer loop
      vertex -87.5 0 0
      vertex -87.5 2.4 -15
      vertex -87.5 0 -18
    endloop
  endfacet
  facet normal -1 0 0
    outer loop
      vertex -87.5 2.4 -15
      vertex -87.5 0 0
      vertex -87.5 2.39999 0
    endloop
  endfacet
  facet normal -1 -0 0
    outer loop
      vertex -87.5 2.4 0.00999928
      vertex -87.5 2.39999 0
      vertex -87.5 2.39999 0.00999928
    endloop
  endfacet
  facet normal 0 1 -0
    outer loop
      vertex -42.5 2.4 -15
      vertex -87.5 2.4 0.00999928
      vertex -42.5 2.4 0.00999928
    endloop
  endfacet
  facet normal 0 1 0
    outer loop
      vertex -87.5 2.4 0.00999928
      vertex -42.5 2.4 -15
      vertex -87.5 2.4 -15
    endloop
  endfacet
  facet normal 0 -1 0
    outer loop
      vertex -87.5 0 0
      vertex -88 0 20.7951
      vertex -88 0 0
    endloop
  endfacet
  facet normal 0 -1 0
    outer loop
      vertex -88 0 67.6
      vertex -77.8 0 54.2
      vertex 88 0 67.6
    endloop
  endfacet
  facet normal -0 -1 0
    outer loop
      vertex -77.8 0 54.2
      vertex -88 0 67.6
      vertex -88 0 49.2049
    endloop
  endfacet
  facet normal 0 -1 0
    outer loop
      vertex 42.5 0 0
      vertex 88 0 67.6
      vertex -77.8 0 54.2
    endloop
  endfacet
  facet normal 0 -1 -0
    outer loop
      vertex 88 0 67.6
      vertex 42.5 0 0
      vertex 88 0 49.005
    endloop
  endfacet
  facet normal 0 -1 0
    outer loop
      vertex -42.5 0 0
      vertex -77.8 0 54.2
      vertex -77.8 0 15.8
    endloop
  endfacet
  facet normal 0 -1 0
    outer loop
      vertex -88 0 20.7951
      vertex -87.5 0 0
      vertex -77.8 0 15.8
    endloop
  endfacet
  facet normal 0 -1 0
    outer loop
      vertex -42.5 0 0
      vertex -77.8 0 15.8
      vertex -87.5 0 0
    endloop
  endfacet
  facet normal 0 -1 0
    outer loop
      vertex -77.8 0 54.2
      vertex -42.5 0 0
      vertex 42.5 0 0
    endloop
  endfacet
  facet normal 0 -1 -0
    outer loop
      vertex 88 0 49.005
      vertex 42.5 0 0
      vertex 88 0 20.995
    endloop
  endfacet
  facet normal 0 -1 0
    outer loop
      vertex 87.5 0 0
      vertex 88 0 20.995
      vertex 42.5 0 0
    endloop
  endfacet
  facet normal 0 -1 -0
    outer loop
      vertex 88 0 20.995
      vertex 87.5 0 0
      vertex 88 0 0
    endloop
  endfacet
  facet normal 0 -1 0
    outer loop
      vertex 88 0 20.995
      vertex 98 0 54
      vertex 88 0 49.005
    endloop
  endfacet
  facet normal 0 -1 -0
    outer loop
      vertex 98 0 54
      vertex 88 0 20.995
      vertex 98 0 16
    endloop
  endfacet
  facet normal 0 -1 0
    outer loop
      vertex 42.5 0 -18
      vertex 87.5 0 0
      vertex 42.5 0 0
    endloop
  endfacet
  facet normal 0 -1 -0
    outer loop
      vertex 87.5 0 0
      vertex 42.5 0 -18
      vertex 87.5 0 -18
    endloop
  endfacet
  facet normal 0 -1 0
    outer loop
      vertex -87.5 0 -18
      vertex -42.5 0 0
      vertex -87.5 0 0
    endloop
  endfacet
  facet normal 0 -1 -0
    outer loop
      vertex -42.5 0 0
      vertex -87.5 0 -18
      vertex -42.5 0 -18
    endloop
  endfacet
  facet normal -0 0 1
    outer loop
      vertex -87.5 3.9 -15
      vertex -42.5 2.4 -15
      vertex -42.5 3.9 -15
    endloop
  endfacet
  facet normal 0 0 1
    outer loop
      vertex -42.5 2.4 -15
      vertex -87.5 3.9 -15
      vertex -87.5 2.4 -15
    endloop
  endfacet
  facet normal 0 1 -0
    outer loop
      vertex -42.5 3.9 -18
      vertex -87.5 3.9 -15
      vertex -42.5 3.9 -15
    endloop
  endfacet
  facet normal 0 1 0
    outer loop
      vertex -87.5 3.9 -15
      vertex -42.5 3.9 -18
      vertex -87.5 3.9 -18
    endloop
  endfacet
  facet normal 1 0 0
    outer loop
      vertex 87.5 2.39999 0
      vertex 87.5 2.4 0.00999928
      vertex 87.5 2.39999 0.00999928
    endloop
  endfacet
  facet normal 1 -0 0
    outer loop
      vertex 87.5 2.4 -15
      vertex 87.5 3.9 -18
      vertex 87.5 3.9 -15
    endloop
  endfacet
  facet normal 1 0 0
    outer loop
      vertex 87.5 2.4 0.00999928
      vertex 87.5 2.39999 0
      vertex 87.5 2.4 -15
    endloop
  endfacet
  facet normal 1 -0 0
    outer loop
      vertex 87.5 0 0
      vertex 87.5 2.4 -15
      vertex 87.5 2.39999 0
    endloop
  endfacet
  facet normal 1 0 0
    outer loop
      vertex 87.5 2.4 -15
      vertex 87.5 0 -18
      vertex 87.5 3.9 -18
    endloop
  endfacet
  facet normal 1 0 0
    outer loop
      vertex 87.5 0 -18
      vertex 87.5 2.4 -15
      vertex 87.5 0 0
    endloop
  endfacet
  facet normal -0 0 1
    outer loop
      vertex 42.5 2.4 0.00999928
      vertex 87.5 2.39999 0.00999928
      vertex 87.5 2.4 0.00999928
    endloop
  endfacet
  facet normal 0 0 1
    outer loop
      vertex 87.5 2.39999 0.00999928
      vertex 42.5 2.4 0.00999928
      vertex 42.5 2.39999 0.00999928
    endloop
  endfacet
  facet normal 0 0 -1
    outer loop
      vertex 42.5 0 -18
      vertex 87.5 3.9 -18
      vertex 87.5 0 -18
    endloop
  endfacet
  facet normal -0 0 -1
    outer loop
      vertex 87.5 3.9 -18
      vertex 42.5 0 -18
      vertex 42.5 3.9 -18
    endloop
  endfacet
  facet normal -1 0 0
    outer loop
      vertex 42.5 3.9 -18
      vertex 42.5 2.4 -15
      vertex 42.5 3.9 -15
    endloop
  endfacet
  facet normal -1 0 0
    outer loop
      vertex 42.5 2.4 -15
      vertex 42.5 2.39999 0
      vertex 42.5 2.4 0.00999928
    endloop
  endfacet
  facet normal -1 0 0
    outer loop
      vertex 42.5 0 -18
      vertex 42.5 2.4 -15
      vertex 42.5 3.9 -18
    endloop
  endfacet
  facet normal -1 0 0
    outer loop
      vertex 42.5 0 0
      vertex 42.5 2.4 -15
      vertex 42.5 0 -18
    endloop
  endfacet
  facet normal -1 0 0
    outer loop
      vertex 42.5 2.4 -15
      vertex 42.5 0 0
      vertex 42.5 2.39999 0
    endloop
  endfacet
  facet normal -1 -0 0
    outer loop
      vertex 42.5 2.4 0.00999928
      vertex 42.5 2.39999 0
      vertex 42.5 2.39999 0.00999928
    endloop
  endfacet
  facet normal 0 1 -0
    outer loop
      vertex 87.5 2.4 -15
      vertex 42.5 2.4 0.00999928
      vertex 87.5 2.4 0.00999928
    endloop
  endfacet
  facet normal 0 1 0
    outer loop
      vertex 42.5 2.4 0.00999928
      vertex 87.5 2.4 -15
      vertex 42.5 2.4 -15
    endloop
  endfacet
  facet normal -0 0 1
    outer loop
      vertex 42.5 3.9 -15
      vertex 87.5 2.4 -15
      vertex 87.5 3.9 -15
    endloop
  endfacet
  facet normal 0 0 1
    outer loop
      vertex 87.5 2.4 -15
      vertex 42.5 3.9 -15
      vertex 42.5 2.4 -15
    endloop
  endfacet
  facet normal 0 1 -0
    outer loop
      vertex 87.5 3.9 -18
      vertex 42.5 3.9 -15
      vertex 87.5 3.9 -15
    endloop
  endfacet
  facet normal 0 1 0
    outer loop
      vertex 42.5 3.9 -15
      vertex 87.5 3.9 -18
      vertex 42.5 3.9 -18
    endloop
  endfacet
  facet normal 0 0 -1
    outer loop
      vertex -88 0 0
      vertex -87.5 2.39999 0
      vertex -87.5 0 0
    endloop
  endfacet
  facet normal -0 0 -1
    outer loop
      vertex -87.5 2.39999 0
      vertex -88 0 0
      vertex -88 2.39999 0
    endloop
  endfacet
  facet normal 0 0 -1
    outer loop
      vertex -42.5 0 0
      vertex 42.5 2.39999 0
      vertex 42.5 0 0
    endloop
  endfacet
  facet normal -0 0 -1
    outer loop
      vertex 42.5 2.39999 0
      vertex -42.5 0 0
      vertex -42.5 2.39999 0
    endloop
  endfacet
  facet normal 0 0 -1
    outer loop
      vertex 87.5 0 0
      vertex 88 2.39999 0
      vertex 88 0 0
    endloop
  endfacet
  facet normal -0 0 -1
    outer loop
      vertex 88 2.39999 0
      vertex 87.5 0 0
      vertex 87.5 2.39999 0
    endloop
  endfacet
  facet normal -0 0 1
    outer loop
      vertex -88 140 70
      vertex 88 139.99 70
      vertex 88 140 70
    endloop
  endfacet
  facet normal 0 0 1
    outer loop
      vertex 88 139.99 70
      vertex -88 140 70
      vertex -88 139.99 70
    endloop
  endfacet
  facet normal -0 0 1
    outer loop
      vertex -88 2.39999 70
      vertex 88 -10 70
      vertex 88 2.39999 70
    endloop
  endfacet
  facet normal 0 0 1
    outer loop
      vertex 88 -10 70
      vertex -88 2.39999 70
      vertex -88 -10 70
    endloop
  endfacet
  facet normal 0 1 -0
    outer loop
      vertex 88 140 67.6
      vertex -88 140 70
      vertex 88 140 70
    endloop
  endfacet
  facet normal 0 1 0
    outer loop
      vertex -88 140 70
      vertex 88 140 67.6
      vertex -88 140 67.6
    endloop
  endfacet
  facet normal 0 1 -0
    outer loop
      vertex 42.5 2.39999 0
      vertex -42.5 2.39999 0.00999928
      vertex 42.5 2.39999 0.00999928
    endloop
  endfacet
  facet normal 0 1 0
    outer loop
      vertex -42.5 2.39999 0.00999928
      vertex 42.5 2.39999 0
      vertex -42.5 2.39999 0
    endloop
  endfacet
  facet normal 0 1 0
    outer loop
      vertex 88 2.39999 70
      vertex -77.8 2.39999 54.2
      vertex -88 2.39999 70
    endloop
  endfacet
  facet normal 0 1 0
    outer loop
      vertex 87.99 2.39999 49
      vertex 88 2.39999 70
      vertex 88 2.39999 49.005
    endloop
  endfacet
  facet normal 0 1 0
    outer loop
      vertex 42.5 2.39999 0.00999928
      vertex 88 2.39999 70
      vertex 87.99 2.39999 49
    endloop
  endfacet
  facet normal 0 1 0
    outer loop
      vertex 42.5 2.39999 0.00999928
      vertex 87.99 2.39999 49
      vertex 87.99 2.39999 21
    endloop
  endfacet
  facet normal 0 1 0
    outer loop
      vertex 87.5 2.39999 0.00999928
      vertex 87.99 2.39999 21
      vertex 88 2.39999 20.995
    endloop
  endfacet
  facet normal 0 1 0
    outer loop
      vertex 88 2.39999 70
      vertex 42.5 2.39999 0.00999928
      vertex -77.8 2.39999 54.2
    endloop
  endfacet
  facet normal 0 1 0
    outer loop
      vertex 87.99 2.39999 21
      vertex 87.5 2.39999 0.00999928
      vertex 42.5 2.39999 0.00999928
    endloop
  endfacet
  facet normal 0 1 -0
    outer loop
      vertex 88 2.39999 0
      vertex 87.5 2.39999 0.00999928
      vertex 88 2.39999 20.995
    endloop
  endfacet
  facet normal 0 1 0
    outer loop
      vertex 87.5 2.39999 0.00999928
      vertex 88 2.39999 0
      vertex 87.5 2.39999 0
    endloop
  endfacet
  facet normal 0 1 0
    outer loop
      vertex -88 2.39999 70
      vertex -77.8 2.39999 54.2
      vertex -88 2.39999 49.2049
    endloop
  endfacet
  facet normal 0 1 -0
    outer loop
      vertex -42.5 2.39999 0.00999928
      vertex -77.8 2.39999 54.2
      vertex 42.5 2.39999 0.00999928
    endloop
  endfacet
  facet normal 0 1 0
    outer loop
      vertex -77.8 2.39999 54.2
      vertex -42.5 2.39999 0.00999928
      vertex -77.8 2.39999 15.8
    endloop
  endfacet
  facet normal 0 1 0
    outer loop
      vertex -87.5 2.39999 0.00999928
      vertex -77.8 2.39999 15.8
      vertex -42.5 2.39999 0.00999928
    endloop
  endfacet
  facet normal 0 1 -0
    outer loop
      vertex -87.5 2.39999 0.00999928
      vertex -88 2.39999 20.7951
      vertex -77.8 2.39999 15.8
    endloop
  endfacet
  facet normal 0 1 0
    outer loop
      vertex -88 2.39999 0
      vertex -87.5 2.39999 0.00999928
      vertex -87.5 2.39999 0
    endloop
  endfacet
  facet normal 0 1 0
    outer loop
      vertex -87.5 2.39999 0.00999928
      vertex -88 2.39999 0
      vertex -88 2.39999 20.7951
    endloop
  endfacet
  facet normal 0 0 -1
    outer loop
      vertex -88 139.99 67.6
      vertex 88 140 67.6
      vertex 88 139.99 67.6
    endloop
  endfacet
  facet normal -0 0 -1
    outer loop
      vertex 88 140 67.6
      vertex -88 139.99 67.6
      vertex -88 140 67.6
    endloop
  endfacet
  facet normal 0 0 -1
    outer loop
      vertex -88 -10 67.6
      vertex 88 0 67.6
      vertex 88 -10 67.6
    endloop
  endfacet
  facet normal -0 0 -1
    outer loop
      vertex 88 0 67.6
      vertex -88 -10 67.6
      vertex -88 0 67.6
    endloop
  endfacet
  facet normal 0 -1 0
    outer loop
      vertex -88 -10 67.6
      vertex 88 -10 70
      vertex -88 -10 70
    endloop
  endfacet
  facet normal 0 -1 -0
    outer loop
      vertex 88 -10 70
      vertex -88 -10 67.6
      vertex 88 -10 67.6
    endloop
  endfacet
  facet normal 0 -1 0
    outer loop
      vertex -88 139.99 67.6
      vertex 88 139.99 70
      vertex -88 139.99 70
    endloop
  endfacet
  facet normal 0 -1 -0
    outer loop
      vertex 88 139.99 70
      vertex -88 139.99 67.6
      vertex 88 139.99 67.6
    endloop
  endfacet
  facet normal 1 -0 0
    outer loop
      vertex 88 139.99 70
      vertex 88 140 67.6
      vertex 88 140 70
    endloop
  endfacet
  facet normal 1 0 0
    outer loop
      vertex 88 140 67.6
      vertex 88 139.99 70
      vertex 88 139.99 67.6
    endloop
  endfacet
  facet normal 1 0 0
    outer loop
      vertex 88 2.39999 70
      vertex 88 0 67.6
      vertex 88 2.39999 49.005
    endloop
  endfacet
  facet normal 1 -0 0
    outer loop
      vertex 88 -10 70
      vertex 88 0 67.6
      vertex 88 2.39999 70
    endloop
  endfacet
  facet normal 1 0 0
    outer loop
      vertex 88 0 67.6
      vertex 88 -10 70
      vertex 88 -10 67.6
    endloop
  endfacet
  facet normal 1 0 0
    outer loop
      vertex 88 2.39999 49.005
      vertex 88 0 67.6
      vertex 88 0 49.005
    endloop
  endfacet
  facet normal 1 -0 0
    outer loop
      vertex 88 0 20.995
      vertex 88 2.39999 0
      vertex 88 2.39999 20.995
    endloop
  endfacet
  facet normal 1 0 0
    outer loop
      vertex 88 2.39999 0
      vertex 88 0 20.995
      vertex 88 0 0
    endloop
  endfacet
  facet normal -1 0 0
    outer loop
      vertex -88 139.99 67.6
      vertex -88 140 70
      vertex -88 140 67.6
    endloop
  endfacet
  facet normal -1 -0 0
    outer loop
      vertex -88 140 70
      vertex -88 139.99 67.6
      vertex -88 139.99 70
    endloop
  endfacet
  facet normal -1 0 0
    outer loop
      vertex -88 0 0
      vertex -88 2.39999 20.7951
      vertex -88 2.39999 0
    endloop
  endfacet
  facet normal -1 -0 0
    outer loop
      vertex -88 2.39999 20.7951
      vertex -88 0 0
      vertex -88 0 20.7951
    endloop
  endfacet
  facet normal -1 0 0
    outer loop
      vertex -88 0 67.6
      vertex -88 2.39999 49.2049
      vertex -88 0 49.2049
    endloop
  endfacet
  facet normal -1 0 0
    outer loop
      vertex -88 2.39999 49.2049
      vertex -88 0 67.6
      vertex -88 2.39999 70
    endloop
  endfacet
  facet normal -1 0 0
    outer loop
      vertex -88 -10 70
      vertex -88 0 67.6
      vertex -88 -10 67.6
    endloop
  endfacet
  facet normal -1 0 0
    outer loop
      vertex -88 0 67.6
      vertex -88 -10 70
      vertex -88 2.39999 70
    endloop
  endfacet
  facet normal 0 1 0
    outer loop
      vertex 98 2.4 54
      vertex 87.99 2.4 21
      vertex 87.99 2.4 49
    endloop
  endfacet
  facet normal -0 1 0
    outer loop
      vertex 87.99 2.4 21
      vertex 98 2.4 54
      vertex 98 2.4 16
    endloop
  endfacet
  facet normal 1 -0 0
    outer loop
      vertex 98 0 54
      vertex 98 2.4 16
      vertex 98 2.4 54
    endloop
  endfacet
  facet normal 1 0 0
    outer loop
      vertex 98 2.4 16
      vertex 98 0 54
      vertex 98 0 16
    endloop
  endfacet
  facet normal -0.446856 0 -0.894606
    outer loop
      vertex 88 0 20.995
      vertex 98 2.4 16
      vertex 98 0 16
    endloop
  endfacet
  facet normal -0.446856 -0 -0.894606
    outer loop
      vertex 88 2.39999 20.995
      vertex 98 2.4 16
      vertex 88 0 20.995
    endloop
  endfacet
  facet normal -0.447214 -0 -0.894427
    outer loop
      vertex 87.99 2.4 21
      vertex 88 2.39999 20.995
      vertex 87.99 2.39999 21
    endloop
  endfacet
  facet normal -0.407976 0.407976 -0.816768
    outer loop
      vertex 88 2.39999 20.995
      vertex 87.99 2.4 21
      vertex 98 2.4 16
    endloop
  endfacet
  facet normal -0.446856 0 0.894606
    outer loop
      vertex 98 2.4 54
      vertex 88 2.39999 49.005
      vertex 98 0 54
    endloop
  endfacet
  facet normal -0.407976 0.407976 0.816768
    outer loop
      vertex 87.99 2.4 49
      vertex 88 2.39999 49.005
      vertex 98 2.4 54
    endloop
  endfacet
  facet normal -0.447214 0 0.894427
    outer loop
      vertex 88 2.39999 49.005
      vertex 87.99 2.4 49
      vertex 87.99 2.39999 49
    endloop
  endfacet
  facet normal -0.446856 0 0.894606
    outer loop
      vertex 98 0 54
      vertex 88 2.39999 49.005
      vertex 88 0 49.005
    endloop
  endfacet
  facet normal -1 0 0
    outer loop
      vertex 87.99 2.39999 21
      vertex 87.99 2.4 49
      vertex 87.99 2.4 21
    endloop
  endfacet
  facet normal -1 -0 0
    outer loop
      vertex 87.99 2.4 49
      vertex 87.99 2.39999 21
      vertex 87.99 2.39999 49
    endloop
  endfacet
  facet normal -1 0 0
    outer loop
      vertex -77.8 0 15.8
      vertex -77.8 2.39999 54.2
      vertex -77.8 2.39999 15.8
    endloop
  endfacet
  facet normal -1 -0 0
    outer loop
      vertex -77.8 2.39999 54.2
      vertex -77.8 0 15.8
      vertex -77.8 0 54.2
    endloop
  endfacet
  facet normal 0.439809 0 0.898091
    outer loop
      vertex -88 2.39999 20.7951
      vertex -77.8 0 15.8
      vertex -77.8 2.39999 15.8
    endloop
  endfacet
  facet normal 0.439809 0 0.898091
    outer loop
      vertex -77.8 0 15.8
      vertex -88 2.39999 20.7951
      vertex -88 0 20.7951
    endloop
  endfacet
  facet normal 0.439809 0 -0.898091
    outer loop
      vertex -88 0 49.2049
      vertex -77.8 2.39999 54.2
      vertex -77.8 0 54.2
    endloop
  endfacet
  facet normal 0.439809 0 -0.898091
    outer loop
      vertex -77.8 2.39999 54.2
      vertex -88 0 49.2049
      vertex -88 2.39999 49.2049
    endloop
  endfacet
endsolid OpenSCAD_Model
